<svg xmlns="http://www.w3.org/2000/svg" xmlns:xlink="http://www.w3.org/1999/xlink" viewBox="0,0,256,256" width="100px" height="100px" fill-rule="nonzero"><g fill="#c23d00" fill-rule="nonzero" stroke="none" stroke-width="1" stroke-linecap="butt" stroke-linejoin="miter" stroke-miterlimit="10" stroke-dasharray="" stroke-dashoffset="0" font-family="none" font-weight="none" font-size="none" text-anchor="none" style="mix-blend-mode: normal"><g transform="scale(5.12,5.12)"><path d="M41.70703,13.79297l-11.5,-11.5c-0.1875,-0.1875 -0.44141,-0.29297 -0.70703,-0.29297h-18.00781c-1.92578,0 -3.49219,1.5625 -3.49219,3.48047v38.42188c0,2.25781 1.84375,4.09766 4.11328,4.09766h25.77344c2.26953,0 4.11328,-1.83984 4.11328,-4.09766v-29.40234c0,-0.26562 -0.10547,-0.51953 -0.29297,-0.70703zM26,38h-9v-2h9zM33,34h-16v-2h16zM33,30h-16v-2h16zM33,26h-16v-2h16zM31.66797,14c-0.92187,0 -1.66797,-0.74609 -1.66797,-1.66797v-7.41797l9.08594,9.08594z"></path></g></g></svg>