<svg xmlns="http://www.w3.org/2000/svg" xmlns:xlink="http://www.w3.org/1999/xlink" viewBox="0,0,256,256" width="96px" height="96px" fill-rule="nonzero"><g fill="none" fill-rule="nonzero" stroke="none" stroke-width="none" stroke-linecap="butt" stroke-linejoin="none" stroke-miterlimit="10" stroke-dasharray="" stroke-dashoffset="0" font-family="none" font-weight="none" font-size="none" text-anchor="none" style="mix-blend-mode: normal"><path transform="scale(5.33333,5.33333)" d="M40,41h-32c-2.2,0 -4,-1.8 -4,-4v-26c0,-2.2 1.8,-4 4,-4h32c2.2,0 4,1.8 4,4v26c0,2.2 -1.8,4 -4,4z" id="strokeMainSVG" fill="#c23d00" stroke="#c23d00" stroke-width="4" stroke-linejoin="round"></path><g transform="scale(5.33333,5.33333)" stroke="none" stroke-width="1" stroke-linejoin="miter"><path d="M40,41h-32c-2.2,0 -4,-1.8 -4,-4v-26c0,-2.2 1.8,-4 4,-4h32c2.2,0 4,1.8 4,4v26c0,2.2 -1.8,4 -4,4z" fill="#ffffff"></path><path d="M35,13c-1.65685,0 -3,1.34315 -3,3c0,1.65685 1.34315,3 3,3c1.65685,0 3,-1.34315 3,-3c0,-1.65685 -1.34315,-3 -3,-3z" fill="#c23d00"></path><path d="M20,16l-11,16h22z" fill="#942a09"></path><path d="M31,22l-8,10h16z" fill="#bf360c"></path></g></g></svg>