<svg width="170" height="186" viewBox="0 0 170 186" fill="none" xmlns="http://www.w3.org/2000/svg">
<path d="M159.296 60.8461C159.296 60.8461 134.257 82.8239 163.087 129.886C188.692 171.682 131.141 189.8 106.341 184.948C74.2152 178.664 55.7697 138.058 31.2017 150.924C6.63366 163.79 -17.7051 105.488 18.0315 84.034C62.4862 57.3465 33.9558 41.838 37.9484 22.2699C40.8141 8.22607 81.5926 -13.4871 103.58 11.281C122.083 32.1231 131.157 24.6667 139.614 21.8843C151.811 17.8714 178.434 38.7449 159.296 60.8461Z" fill="#F9E6D7"/>
<path d="M88.4018 85.6127L80.1985 119.261C79.894 120.509 79.8382 121.805 80.0346 123.074C80.2309 124.343 80.6754 125.562 81.3427 126.659C82.01 127.757 82.8869 128.712 83.9235 129.47C84.9601 130.229 86.136 130.776 87.384 131.08L128.183 141.026C129.232 152.544 138.763 153.395 142.524 153.79C142.561 153.792 142.598 153.782 142.628 153.761C142.659 153.74 142.682 153.709 142.693 153.674C142.705 153.639 142.704 153.601 142.692 153.566C142.679 153.531 142.656 153.501 142.625 153.481C139.924 151.835 139.118 147.322 138.938 143.648L141.967 144.386C143.214 144.691 144.51 144.747 145.779 144.55C147.049 144.354 148.267 143.91 149.364 143.242C150.462 142.575 151.417 141.698 152.176 140.661C152.934 139.625 153.481 138.449 153.785 137.201L161.988 103.552C162.293 102.304 162.348 101.009 162.152 99.7395C161.956 98.4701 161.511 97.2519 160.844 96.1544C160.177 95.0569 159.3 94.1016 158.263 93.3431C157.227 92.5846 156.051 92.0378 154.803 91.7339L100.22 78.4271C98.9724 78.1226 97.6768 78.0668 96.4074 78.2632C95.138 78.4595 93.9198 78.904 92.8223 79.5713C91.7247 80.2385 90.7694 81.1155 90.011 82.1522C89.2525 83.1888 88.7057 84.3647 88.4018 85.6127Z" fill="#E48F67"/>
<path d="M156.078 102.212L133.264 96.6505C133.114 96.6139 132.963 96.706 132.926 96.8562L131.756 101.657C131.719 101.807 131.811 101.959 131.961 101.995L154.775 107.557C154.925 107.594 155.077 107.502 155.113 107.351L156.284 102.551C156.32 102.4 156.228 102.249 156.078 102.212Z" fill="white"/>
<path d="M152.82 115.574L91.0082 100.505C90.858 100.468 90.7065 100.56 90.6699 100.711L89.4995 105.511C89.4629 105.662 89.555 105.813 89.7052 105.85L151.517 120.919C151.668 120.956 151.819 120.864 151.856 120.713L153.026 115.913C153.063 115.762 152.971 115.611 152.82 115.574Z" fill="#F2D7C3"/>
<path d="M149.563 128.936L87.7507 113.867C87.6004 113.831 87.4489 113.923 87.4123 114.073L86.2419 118.874C86.2053 119.024 86.2974 119.175 86.4477 119.212L148.26 134.281C148.41 134.318 148.561 134.226 148.598 134.076L149.768 129.275C149.805 129.125 149.713 128.973 149.563 128.936Z" fill="#F2D7C3"/>
<path d="M111.372 45.2483L124.787 88.3263C125.285 89.9238 125.463 91.6037 125.312 93.27C125.16 94.9364 124.682 96.5566 123.904 98.038C123.126 99.5195 122.064 100.833 120.778 101.904C119.492 102.975 118.008 103.782 116.41 104.279L64.1794 120.543C63.7568 135.603 51.4337 137.489 46.5767 138.309C46.5285 138.315 46.4795 138.306 46.4376 138.281C46.3957 138.256 46.3632 138.218 46.3453 138.173C46.3274 138.128 46.3251 138.078 46.3388 138.031C46.3525 137.985 46.3814 137.944 46.4209 137.916C49.7972 135.555 50.4768 129.622 50.4109 124.83L46.5329 126.038C44.9355 126.536 43.2557 126.714 41.5894 126.562C39.9231 126.411 38.303 125.932 36.8216 125.155C35.3403 124.377 34.0267 123.315 32.9559 122.029C31.8851 120.743 31.0781 119.259 30.581 117.662L17.1665 74.5838C16.6685 72.9863 16.4902 71.3064 16.6417 69.6401C16.7933 67.9737 17.2716 66.3535 18.0495 64.872C18.8274 63.3906 19.8895 62.0769 21.1752 61.0061C22.461 59.9353 23.9451 59.1283 25.5428 58.6312L95.4198 36.872C97.0172 36.3741 98.6971 36.1958 100.363 36.3473C102.03 36.4988 103.65 36.9771 105.132 37.755C106.613 38.5329 107.927 39.595 108.997 40.8808C110.068 42.1665 110.875 43.6506 111.372 45.2483Z" fill="#BE501E" fill-opacity="0.86"/>
<path d="M62.0225 60.6769L24.6033 72.3141C24.4557 72.36 24.3732 72.517 24.4191 72.6646L26.3813 78.9739C26.4272 79.1216 26.5841 79.2041 26.7318 79.1582L64.151 67.521C64.2987 67.4751 64.3812 67.3182 64.3352 67.1705L62.3731 60.8612C62.3271 60.7135 62.1702 60.631 62.0225 60.6769Z" fill="white"/>
<path d="M109.244 64.6757L29.9496 89.3685C29.8019 89.4145 29.7195 89.5715 29.7655 89.7191L31.7298 96.0269C31.7758 96.1746 31.9328 96.257 32.0804 96.211L111.375 71.5182C111.522 71.4722 111.605 71.3153 111.559 71.1676L109.594 64.8598C109.548 64.7121 109.392 64.6297 109.244 64.6757Z" fill="#F2D7C3"/>
<path d="M114.563 81.8698L35.2506 106.536C35.1029 106.582 35.0204 106.738 35.0663 106.886L37.0285 113.195C37.0744 113.343 37.2314 113.426 37.379 113.38L116.692 88.7139C116.84 88.6679 116.922 88.511 116.876 88.3633L114.914 82.054C114.868 81.9063 114.711 81.8238 114.563 81.8698Z" fill="#F2D7C3"/>
</svg>
