<svg width="118" height="92" viewBox="0 0 118 92" fill="none" xmlns="http://www.w3.org/2000/svg">
<path d="M102.731 26.66V30.97" stroke="#C23D00" stroke-linecap="round" stroke-linejoin="round"/>
<path d="M100.581 28.8101H104.881" stroke="#C23D00" stroke-linecap="round" stroke-linejoin="round"/>
<path d="M14.5713 10.03V14.33" stroke="#C23D00" stroke-linecap="round" stroke-linejoin="round"/>
<path d="M12.4114 12.1801H16.7214" stroke="#C23D00" stroke-linecap="round" stroke-linejoin="round"/>
<path d="M48.0313 1.96C48.5725 1.96 49.0113 1.52124 49.0113 0.98C49.0113 0.43876 48.5725 0 48.0313 0C47.49 0 47.0513 0.43876 47.0513 0.98C47.0513 1.52124 47.49 1.96 48.0313 1.96Z" fill="#E48F67"/>
<path d="M79.4512 40.92C71.0812 40.92 62.5612 40.58 54.5912 38.36C46.7712 36.19 39.5912 31.98 33.1912 27.11C29.0012 23.94 25.1912 21.42 19.7512 21.8C14.4247 22.0916 9.3336 24.0901 5.23121 27.5C-1.68879 33.5 -0.648793 44.73 2.12121 52.62C6.28121 64.5 18.9412 72.73 29.7012 78.11C42.1312 84.32 55.7912 87.92 69.4812 90C81.4812 91.82 96.9012 93.15 107.301 85.31C116.851 78.11 119.471 61.67 117.131 50.57C116.564 47.2879 114.818 44.3257 112.221 42.24C105.511 37.34 95.5012 40.61 87.9612 40.78C85.1612 40.84 82.3112 40.91 79.4512 40.92Z" fill="#FFECDF"/>
<path d="M74.564 3.32122L25.6887 9.92942C24.1234 10.1411 23.0261 11.5815 23.2377 13.1468L32.7159 83.249C32.9275 84.8143 34.368 85.9116 35.9333 85.7L84.8086 79.0918C86.3739 78.8802 87.4712 77.4397 87.2596 75.8744L77.7814 5.77223C77.5698 4.20694 76.1293 3.10959 74.564 3.32122Z" fill="#E48F67"/>
<path d="M90.8013 13.61H41.4813C39.9018 13.61 38.6213 14.8905 38.6213 16.47V87.21C38.6213 88.7895 39.9018 90.07 41.4813 90.07H90.8013C92.3809 90.07 93.6613 88.7895 93.6613 87.21V16.47C93.6613 14.8905 92.3809 13.61 90.8013 13.61Z" fill="#F9F1EB" stroke="#C23D00" stroke-linecap="round" stroke-linejoin="round"/>
<path d="M77.9911 68.53H54.2811C53.392 68.53 52.6711 69.2509 52.6711 70.14V70.15C52.6711 71.0392 53.392 71.76 54.2811 71.76H77.9911C78.8803 71.76 79.6011 71.0392 79.6011 70.15V70.14C79.6011 69.2509 78.8803 68.53 77.9911 68.53Z" fill="#E48F67"/>
<path d="M77.1414 81.73H54.3914C54.1207 81.73 53.9014 81.9494 53.9014 82.22V82.37C53.9014 82.6406 54.1207 82.86 54.3914 82.86H77.1414C77.412 82.86 77.6314 82.6406 77.6314 82.37V82.22C77.6314 81.9494 77.412 81.73 77.1414 81.73Z" fill="#E48F67"/>
<path d="M82.9413 76.4399H49.4313C49.0723 76.4399 48.7812 76.731 48.7812 77.0899C48.7812 77.4489 49.0723 77.7399 49.4313 77.7399H82.9413C83.3002 77.7399 83.5913 77.4489 83.5913 77.0899C83.5913 76.731 83.3002 76.4399 82.9413 76.4399Z" fill="#E48F67"/>
<path d="M89.0714 15.9399H43.2114C42.0737 15.9399 41.1514 16.8622 41.1514 17.9999V57.7699C41.1514 58.9076 42.0737 59.8299 43.2114 59.8299H89.0714C90.2091 59.8299 91.1314 58.9076 91.1314 57.7699V17.9999C91.1314 16.8622 90.2091 15.9399 89.0714 15.9399Z" fill="white" stroke="#C23D00" stroke-linecap="round" stroke-linejoin="round"/>
<path d="M19.4014 58.8199V63.1299" stroke="#C23D00" stroke-linecap="round" stroke-linejoin="round"/>
<path d="M17.2512 60.97H21.5612" stroke="#C23D00" stroke-linecap="round" stroke-linejoin="round"/>
<path d="M100.911 61.87C101.452 61.87 101.891 61.4313 101.891 60.89C101.891 60.3488 101.452 59.91 100.911 59.91C100.37 59.91 99.9312 60.3488 99.9312 60.89C99.9312 61.4313 100.37 61.87 100.911 61.87Z" fill="#E48F67"/>
</svg>
