<svg width="319" height="421" viewBox="0 0 319 421" fill="none" xmlns="http://www.w3.org/2000/svg">
<path d="M0 29.9223C0 13.3967 13.3798 0 29.8845 0H205.717L319 109.599V391.078C319 407.603 305.62 421 289.115 421H29.8845C13.3798 421 0 407.603 0 391.078V29.9223Z" fill="white"/>
<path d="M225.822 119.689C210.496 119.689 198.072 107.317 198.072 92.0546L198.072 14.6133L252.281 67.1513L306.49 119.689L225.822 119.689Z" fill="white"/>
<path d="M192.165 89.4924V4.87109H208.149V89.4924L208.157 90.0646C208.461 102.038 218.282 111.687 230.397 111.687H318.305V127.692H230.397C209.467 127.692 192.433 110.875 192.168 89.9865L192.165 89.4924Z" fill="#C23D00"/>
<path d="M0 271.388H319V378C319 401.748 299.748 421 276 421H43C19.2518 421 0 401.748 0 378V271.388Z" fill="#C23D00"/>
<path d="M210.933 305.888V370.202H199.86V305.888H210.933ZM237.138 334.025V342.815H208.11V334.025H237.138ZM240.799 305.888V314.722H208.11V305.888H240.799Z" fill="white"/>
<path d="M159.495 370.202H145.775L145.863 361.411H159.495C163.465 361.411 166.788 360.543 169.465 358.805C172.17 357.068 174.2 354.58 175.553 351.34C176.935 348.101 177.626 344.244 177.626 339.768V336.278C177.626 332.803 177.229 329.726 176.435 327.046C175.67 324.367 174.523 322.114 172.994 320.288C171.494 318.462 169.641 317.078 167.435 316.136C165.259 315.194 162.744 314.722 159.892 314.722H145.51V305.888H159.892C164.156 305.888 168.053 306.61 171.582 308.053C175.111 309.466 178.155 311.513 180.714 314.192C183.302 316.872 185.287 320.082 186.67 323.822C188.052 327.562 188.743 331.743 188.743 336.366V339.768C188.743 344.391 188.052 348.572 186.67 352.312C185.287 356.052 183.302 359.262 180.714 361.942C178.126 364.592 175.038 366.638 171.45 368.081C167.891 369.495 163.906 370.202 159.495 370.202ZM151.907 305.888V370.202H140.834V305.888H151.907Z" fill="white"/>
<path d="M107.526 346.217H90.8067V337.426H107.526C110.438 337.426 112.791 336.955 114.585 336.013C116.379 335.071 117.688 333.775 118.511 332.126C119.364 330.447 119.791 328.533 119.791 326.384C119.791 324.352 119.364 322.452 118.511 320.686C117.688 318.889 116.379 317.446 114.585 316.357C112.791 315.267 110.438 314.722 107.526 314.722H94.2036V370.202H83.1306V305.888H107.526C112.497 305.888 116.717 306.772 120.188 308.538C123.687 310.276 126.349 312.691 128.173 315.783C129.996 318.845 130.908 322.349 130.908 326.295C130.908 330.447 129.996 334.011 128.173 336.985C126.349 339.959 123.687 342.241 120.188 343.831C116.717 345.421 112.497 346.217 107.526 346.217Z" fill="white"/>
<path d="M0 391.078V29.9223C0 13.3967 13.3798 0 29.8845 0H205.717L319 109.599V391.078C319 407.603 305.62 421 289.115 421V404.995C296.792 404.995 303.015 398.764 303.015 391.078V116.39L199.256 16.005H29.8845C22.2079 16.005 15.9847 22.236 15.9847 29.9223V391.078C15.9847 398.764 22.2079 404.995 29.8845 404.995V421L29.1135 420.99C12.9651 420.581 0 407.345 0 391.078ZM289.115 404.995V421H29.8845V404.995H289.115Z" fill="#C23D00"/>
</svg>
