<svg width="36" height="36" viewBox="0 0 36 36" fill="none" xmlns="http://www.w3.org/2000/svg">
<path d="M27 13.8034C27 11.4695 26.0518 9.2312 24.364 7.58088C22.6761 5.93056 20.3869 5.00342 18 5.00342C15.6131 5.00342 13.3239 5.93056 11.636 7.58088C9.94821 9.2312 9 11.4695 9 13.8034C9 24.0701 4.5 27.0034 4.5 27.0034H31.5C31.5 27.0034 27 24.0701 27 13.8034Z" fill="#C23D00"/>
<path d="M20.6764 5.45101L20.383 6.40699L20.6764 5.45101ZM15.7723 5.35353L16.0231 6.32156L15.7723 5.35353ZM13.4839 6.28768L13.9823 7.15463L13.4839 6.28768ZM8.99991 14.5957L9.99964 14.6191L8.99991 14.5957ZM8.41949 19.5525L7.44384 19.3332L8.41949 19.5525ZM6.68988 24.2102L7.56728 24.69L6.68988 24.2102ZM18.4096 26.9945L18.3941 25.9947L18.4096 26.9945ZM28.4096 26.9842L28.414 25.9843L28.4096 26.9842ZM30.2254 25.6007L31.0106 24.9814L30.2254 25.6007ZM28.907 23.4978L28.0075 23.9347L28.907 23.4978ZM28.0149 21.1754L28.9756 20.8977L28.0149 21.1754ZM27.4549 18.7457L26.4696 18.9166L27.4549 18.7457ZM26.8312 12.5675L27.822 12.4322C27.6954 11.5051 27.4294 10.6181 27.0249 9.77481L26.1232 10.2073L25.2216 10.6398C25.536 11.2954 25.742 11.9818 25.8404 12.7028L26.8312 12.5675ZM26.1232 10.2073L27.0249 9.77481C26.6288 8.94909 26.1348 8.18506 25.5442 7.48439L24.7796 8.12891L24.015 8.77343C24.4969 9.34501 24.8987 9.96657 25.2216 10.6398L26.1232 10.2073ZM24.7796 8.12891L25.5442 7.48439C24.9438 6.77213 24.2502 6.16205 23.4661 5.65616L22.924 6.49646L22.3818 7.33676C22.9995 7.73523 23.543 8.21345 24.015 8.77343L24.7796 8.12891ZM22.924 6.49646L23.4661 5.65616C22.688 5.15418 21.8551 4.76677 20.9698 4.49503L20.6764 5.45101L20.383 6.40699C21.0927 6.62483 21.7582 6.93439 22.3818 7.33676L22.924 6.49646ZM20.6764 5.45101L20.9698 4.49503C20.0829 4.22278 19.1745 4.07838 18.2474 4.06235L18.2301 5.0622L18.2128 6.06205C18.9524 6.07484 19.6749 6.18965 20.383 6.40699L20.6764 5.45101ZM18.2301 5.0622L18.2474 4.06235C17.3238 4.04637 16.4144 4.15413 15.5215 4.38549L15.7723 5.35353L16.0231 6.32156C16.7406 6.13565 17.4697 6.04919 18.2128 6.06205L18.2301 5.0622ZM15.7723 5.35353L15.5215 4.38549C14.6297 4.61656 13.7836 4.96192 12.9855 5.42072L13.4839 6.28768L13.9823 7.15463C14.625 6.78517 15.3045 6.50776 16.0231 6.32156L15.7723 5.35353ZM13.4839 6.28768L12.9855 5.42072C12.1845 5.88119 11.4612 6.44369 10.8177 7.10657L11.5352 7.8031L12.2528 8.49964C12.7667 7.97021 13.3425 7.52243 13.9823 7.15463L13.4839 6.28768ZM11.5352 7.8031L10.8177 7.10657C10.1723 7.77147 9.63339 8.51517 9.20287 9.3353L10.0883 9.8001L10.9737 10.2649C11.315 9.61466 11.7408 9.02703 12.2528 8.49964L11.5352 7.8031ZM10.0883 9.8001L9.20287 9.3353C8.77212 10.1559 8.46682 11.0219 8.28807 11.9304L9.26926 12.1235L10.2504 12.3165C10.3919 11.5976 10.6326 10.9147 10.9737 10.2649L10.0883 9.8001ZM9.26926 12.1235L8.28807 11.9304C8.1169 12.8005 8.02097 13.6813 8.00019 14.5724L8.99991 14.5957L9.99964 14.6191C10.0178 13.8413 10.1014 13.074 10.2504 12.3165L9.26926 12.1235ZM8.99991 14.5957L8.00019 14.5724C7.9814 15.3776 7.92741 16.1801 7.83821 16.9799L8.83205 17.0907L9.82589 17.2016C9.92157 16.3436 9.97949 15.4827 9.99964 14.6191L8.99991 14.5957ZM8.83205 17.0907L7.83821 16.9799C7.74983 17.7724 7.61837 18.5568 7.44384 19.3332L8.41949 19.5525L9.39514 19.7718C9.5858 18.9237 9.72939 18.0669 9.82589 17.2016L8.83205 17.0907ZM8.41949 19.5525L7.44384 19.3332C7.27071 20.1033 7.04864 20.859 6.77754 21.6004L7.71672 21.9438L8.6559 22.2872C8.95664 21.4648 9.20308 20.6262 9.39514 19.7718L8.41949 19.5525ZM7.71672 21.9438L6.77754 21.6004C6.50875 22.3354 6.18711 23.0453 5.81249 23.7304L6.68988 24.2102L7.56728 24.69C7.98994 23.917 8.35286 23.116 8.6559 22.2872L7.71672 21.9438ZM6.68988 24.2102L5.81249 23.7304C5.44316 24.4059 5.04412 24.9876 4.61845 25.4812L5.37577 26.1343L6.13309 26.7873C6.66228 26.1736 7.13932 25.4726 7.56728 24.69L6.68988 24.2102ZM5.37577 26.1343L4.61845 25.4812C4.46437 25.6599 4.29678 25.8893 4.19958 26.1596C4.09539 26.4493 4.04467 26.8835 4.30799 27.2965C4.54347 27.6658 4.9063 27.8147 5.13753 27.8795C5.3852 27.9489 5.65225 27.9701 5.90425 27.9715L5.90962 26.9715L5.91499 25.9715C5.83758 25.9711 5.77892 25.9675 5.73642 25.9628C5.69288 25.9581 5.6755 25.9532 5.67748 25.9538C5.67791 25.9539 5.71639 25.9643 5.77287 25.999C5.83186 26.0354 5.9199 26.1044 5.99433 26.2212C6.16867 26.4946 6.1109 26.7549 6.08158 26.8364C6.05925 26.8985 6.04845 26.8854 6.13309 26.7873L5.37577 26.1343ZM5.90962 26.9715L5.90425 27.9715C6.73475 27.9759 7.56525 27.9839 8.39575 27.9954L8.40962 26.9955L8.42349 25.9956C7.58732 25.984 6.75116 25.976 5.91499 25.9715L5.90962 26.9715ZM8.40962 26.9955L8.39575 27.9954C9.23602 28.0071 10.0763 28.01 10.9166 28.0042L10.9096 27.0042L10.9027 26.0042C10.0763 26.01 9.24989 26.0071 8.42349 25.9956L8.40962 26.9955ZM10.9096 27.0042L10.9166 28.0042C11.7422 27.9985 12.5679 28.0022 13.3936 28.0155L13.4096 27.0156L13.4257 26.0157C12.5847 26.0022 11.7437 25.9984 10.9027 26.0042L10.9096 27.0042ZM13.4096 27.0156L13.3936 28.0155C14.2351 28.029 15.0767 28.0321 15.9183 28.0248L15.9096 27.0248L15.901 26.0248C15.0759 26.032 14.2508 26.0289 13.4257 26.0157L13.4096 27.0156ZM15.9096 27.0248L15.9183 28.0248C16.7539 28.0175 17.5895 28.0074 18.4252 27.9944L18.4096 26.9945L18.3941 25.9947C17.563 26.0076 16.732 26.0176 15.901 26.0248L15.9096 27.0248ZM18.4096 26.9945L18.4252 27.9944C19.2448 27.9817 20.0644 27.9858 20.8841 28.0067L20.9096 27.007L20.9352 26.0074C20.0881 25.9857 19.2411 25.9815 18.3941 25.9947L18.4096 26.9945ZM20.9096 27.007L20.8841 28.0067C21.7255 28.0282 22.5669 28.0395 23.4083 28.0406L23.4096 27.0406L23.4109 26.0406C22.5857 26.0395 21.7604 26.0285 20.9352 26.0074L20.9096 27.007ZM23.4096 27.0406L23.4083 28.0406C24.2505 28.0417 25.0928 28.0316 25.935 28.0102L25.9096 27.0105L25.8843 26.0109C25.0598 26.0318 24.2354 26.0417 23.4109 26.0406L23.4096 27.0406ZM25.9096 27.0105L25.935 28.0102C26.7584 27.9893 27.5819 27.9807 28.4053 27.9842L28.4096 26.9842L28.414 25.9843C27.5707 25.9806 26.7275 25.9895 25.8843 26.0109L25.9096 27.0105ZM28.4096 26.9842L28.4053 27.9842C29.2733 27.988 30.0315 27.9217 30.6211 27.7416L30.3291 26.7852L30.037 25.8288C29.7341 25.9214 29.2126 25.9877 28.414 25.9843L28.4096 26.9842ZM30.3291 26.7852L30.6211 27.7416C30.8557 27.67 31.1453 27.5293 31.364 27.2472C31.5969 26.9468 31.6605 26.6014 31.6341 26.2997C31.5893 25.7879 31.2821 25.3256 31.0106 24.9814L30.2254 25.6007L29.4403 26.22C29.545 26.3528 29.6051 26.4473 29.6363 26.5068C29.671 26.5731 29.6488 26.5556 29.6417 26.474C29.6326 26.3698 29.6533 26.1895 29.7833 26.0219C29.8991 25.8725 30.0256 25.8323 30.037 25.8288L30.3291 26.7852ZM30.2254 25.6007L31.0106 24.9814C30.5398 24.3845 30.1386 23.7447 29.8065 23.0609L28.907 23.4978L28.0075 23.9347C28.4025 24.748 28.8803 25.5101 29.4403 26.22L30.2254 25.6007ZM28.907 23.4978L29.8065 23.0609C29.4678 22.3636 29.191 21.6428 28.9756 20.8977L28.0149 21.1754L27.0543 21.4531C27.3012 22.3075 27.619 23.1349 28.0075 23.9347L28.907 23.4978ZM28.0149 21.1754L28.9756 20.8977C28.7546 20.1331 28.5762 19.3589 28.4402 18.5749L27.4549 18.7457L26.4696 18.9166C26.6181 19.7727 26.813 20.6182 27.0543 21.4531L28.0149 21.1754ZM27.4549 18.7457L28.4402 18.5749C28.3021 17.7784 28.1926 16.9775 28.1116 16.1723L27.1167 16.2723L26.1217 16.3723C26.2074 17.2249 26.3233 18.073 26.4696 18.9166L27.4549 18.7457ZM27.1167 16.2723L28.1116 16.1723C28.029 15.3505 27.9934 14.7756 27.9958 14.423L26.9959 14.4162L25.9959 14.4094C25.9927 14.8739 26.0377 15.5364 26.1217 16.3723L27.1167 16.2723ZM26.9959 14.4162L27.9958 14.423C27.9991 13.94 27.9358 13.2655 27.822 12.4322L26.8312 12.5675L25.8404 12.7028C25.9517 13.5174 25.9981 14.0754 25.9959 14.4094L26.9959 14.4162Z" fill="#C23D00"/>
<path d="M21.46 29.0034C21.1084 29.6096 20.6037 30.1127 19.9965 30.4625C19.3893 30.8122 18.7008 30.9963 18 30.9963C17.2993 30.9963 16.6108 30.8122 16.0036 30.4625C15.3964 30.1127 14.8917 29.6096 14.54 29.0034" fill="#C23D00"/>
</svg>
